solid ASCII
  facet normal 0.000000e+00 -0.000000e+00 -1.000000e+00
    outer loop
      vertex   -9.364473e+01 -8.091324e+01 -8.000000e+00
      vertex   -9.364473e+01 -1.159132e+02 -8.000000e+00
      vertex   -1.116447e+02 -1.249582e+02 -8.000000e+00
    endloop
  endfacet
  facet normal 0.000000e+00 0.000000e+00 -1.000000e+00
    outer loop
      vertex   -1.116447e+02 -1.249582e+02 -8.000000e+00
      vertex   -9.364473e+01 -1.159132e+02 -8.000000e+00
      vertex   -5.764473e+01 -1.159132e+02 -8.000000e+00
    endloop
  endfacet
  facet normal 0.000000e+00 0.000000e+00 -1.000000e+00
    outer loop
      vertex   -1.116447e+02 -1.249582e+02 -8.000000e+00
      vertex   -5.764473e+01 -1.159132e+02 -8.000000e+00
      vertex   -3.964473e+01 -1.249582e+02 -8.000000e+00
    endloop
  endfacet
  facet normal 0.000000e+00 0.000000e+00 -1.000000e+00
    outer loop
      vertex   -3.964473e+01 -1.249582e+02 -8.000000e+00
      vertex   -5.764473e+01 -1.159132e+02 -8.000000e+00
      vertex   -5.764473e+01 -8.091324e+01 -8.000000e+00
    endloop
  endfacet
  facet normal 0.000000e+00 0.000000e+00 -1.000000e+00
    outer loop
      vertex   -3.964473e+01 -1.249582e+02 -8.000000e+00
      vertex   -5.764473e+01 -8.091324e+01 -8.000000e+00
      vertex   -3.964473e+01 -7.186824e+01 -8.000000e+00
    endloop
  endfacet
  facet normal 0.000000e+00 0.000000e+00 -1.000000e+00
    outer loop
      vertex   -3.964473e+01 -7.186824e+01 -8.000000e+00
      vertex   -5.764473e+01 -8.091324e+01 -8.000000e+00
      vertex   -9.364473e+01 -8.091324e+01 -8.000000e+00
    endloop
  endfacet
  facet normal -0.000000e+00 0.000000e+00 -1.000000e+00
    outer loop
      vertex   -3.964473e+01 -7.186824e+01 -8.000000e+00
      vertex   -9.364473e+01 -8.091324e+01 -8.000000e+00
      vertex   -1.116447e+02 -7.186824e+01 -8.000000e+00
    endloop
  endfacet
  facet normal 0.000000e+00 0.000000e+00 -1.000000e+00
    outer loop
      vertex   -1.116447e+02 -7.186824e+01 -8.000000e+00
      vertex   -9.364473e+01 -8.091324e+01 -8.000000e+00
      vertex   -1.116447e+02 -1.249582e+02 -8.000000e+00
    endloop
  endfacet
  facet normal -0.000000e+00 1.000000e+00 0.000000e+00
    outer loop
      vertex   -9.364473e+01 -1.159132e+02 -2.000000e+00
      vertex   -5.764473e+01 -1.159132e+02 -2.000000e+00
      vertex   -9.364473e+01 -1.159132e+02 -8.000000e+00
    endloop
  endfacet
  facet normal 0.000000e+00 1.000000e+00 0.000000e+00
    outer loop
      vertex   -9.364473e+01 -1.159132e+02 -8.000000e+00
      vertex   -5.764473e+01 -1.159132e+02 -2.000000e+00
      vertex   -5.764473e+01 -1.159132e+02 -8.000000e+00
    endloop
  endfacet
  facet normal 1.000000e+00 0.000000e+00 0.000000e+00
    outer loop
      vertex   -9.364473e+01 -8.091324e+01 -2.000000e+00
      vertex   -9.364473e+01 -1.159132e+02 -2.000000e+00
      vertex   -9.364473e+01 -8.091324e+01 -8.000000e+00
    endloop
  endfacet
  facet normal 1.000000e+00 0.000000e+00 0.000000e+00
    outer loop
      vertex   -9.364473e+01 -8.091324e+01 -8.000000e+00
      vertex   -9.364473e+01 -1.159132e+02 -2.000000e+00
      vertex   -9.364473e+01 -1.159132e+02 -8.000000e+00
    endloop
  endfacet
  facet normal -0.000000e+00 -1.000000e+00 -0.000000e+00
    outer loop
      vertex   -5.764473e+01 -8.091324e+01 -2.000000e+00
      vertex   -9.364473e+01 -8.091324e+01 -2.000000e+00
      vertex   -5.764473e+01 -8.091324e+01 -8.000000e+00
    endloop
  endfacet
  facet normal 0.000000e+00 -1.000000e+00 0.000000e+00
    outer loop
      vertex   -5.764473e+01 -8.091324e+01 -8.000000e+00
      vertex   -9.364473e+01 -8.091324e+01 -2.000000e+00
      vertex   -9.364473e+01 -8.091324e+01 -8.000000e+00
    endloop
  endfacet
  facet normal -1.000000e+00 0.000000e+00 0.000000e+00
    outer loop
      vertex   -5.764473e+01 -1.159132e+02 -2.000000e+00
      vertex   -5.764473e+01 -8.091324e+01 -2.000000e+00
      vertex   -5.764473e+01 -1.159132e+02 -8.000000e+00
    endloop
  endfacet
  facet normal -1.000000e+00 0.000000e+00 0.000000e+00
    outer loop
      vertex   -5.764473e+01 -1.159132e+02 -8.000000e+00
      vertex   -5.764473e+01 -8.091324e+01 -2.000000e+00
      vertex   -5.764473e+01 -8.091324e+01 -8.000000e+00
    endloop
  endfacet
  facet normal -1.000000e+00 0.000000e+00 0.000000e+00
    outer loop
      vertex   -5.814473e+01 -8.691324e+01 -2.000000e+00
      vertex   -5.814473e+01 -1.109132e+02 -2.000000e+00
      vertex   -5.814473e+01 -8.691324e+01 0.000000e+00
    endloop
  endfacet
  facet normal -1.000000e+00 -0.000000e+00 0.000000e+00
    outer loop
      vertex   -5.814473e+01 -8.691324e+01 0.000000e+00
      vertex   -5.814473e+01 -1.109132e+02 -2.000000e+00
      vertex   -5.814473e+01 -1.109132e+02 0.000000e+00
    endloop
  endfacet
  facet normal 0.000000e+00 0.000000e+00 -1.000000e+00
    outer loop
      vertex   -9.364473e+01 -8.091324e+01 -2.000000e+00
      vertex   -9.314473e+01 -8.691324e+01 -2.000000e+00
      vertex   -9.364473e+01 -1.159132e+02 -2.000000e+00
    endloop
  endfacet
  facet normal 0.000000e+00 0.000000e+00 -1.000000e+00
    outer loop
      vertex   -9.364473e+01 -1.159132e+02 -2.000000e+00
      vertex   -9.314473e+01 -8.691324e+01 -2.000000e+00
      vertex   -9.314473e+01 -1.109132e+02 -2.000000e+00
    endloop
  endfacet
  facet normal 0.000000e+00 0.000000e+00 -1.000000e+00
    outer loop
      vertex   -9.364473e+01 -1.159132e+02 -2.000000e+00
      vertex   -9.314473e+01 -1.109132e+02 -2.000000e+00
      vertex   -5.814473e+01 -1.109132e+02 -2.000000e+00
    endloop
  endfacet
  facet normal 0.000000e+00 0.000000e+00 -1.000000e+00
    outer loop
      vertex   -9.364473e+01 -8.091324e+01 -2.000000e+00
      vertex   -5.764473e+01 -8.091324e+01 -2.000000e+00
      vertex   -9.314473e+01 -8.691324e+01 -2.000000e+00
    endloop
  endfacet
  facet normal 0.000000e+00 0.000000e+00 -1.000000e+00
    outer loop
      vertex   -9.314473e+01 -8.691324e+01 -2.000000e+00
      vertex   -5.764473e+01 -8.091324e+01 -2.000000e+00
      vertex   -5.814473e+01 -8.691324e+01 -2.000000e+00
    endloop
  endfacet
  facet normal 0.000000e+00 0.000000e+00 -1.000000e+00
    outer loop
      vertex   -5.814473e+01 -8.691324e+01 -2.000000e+00
      vertex   -5.764473e+01 -8.091324e+01 -2.000000e+00
      vertex   -5.764473e+01 -1.159132e+02 -2.000000e+00
    endloop
  endfacet
  facet normal 0.000000e+00 0.000000e+00 -1.000000e+00
    outer loop
      vertex   -5.814473e+01 -8.691324e+01 -2.000000e+00
      vertex   -5.764473e+01 -1.159132e+02 -2.000000e+00
      vertex   -5.814473e+01 -1.109132e+02 -2.000000e+00
    endloop
  endfacet
  facet normal 0.000000e+00 -0.000000e+00 -1.000000e+00
    outer loop
      vertex   -5.814473e+01 -1.109132e+02 -2.000000e+00
      vertex   -5.764473e+01 -1.159132e+02 -2.000000e+00
      vertex   -9.364473e+01 -1.159132e+02 -2.000000e+00
    endloop
  endfacet
  facet normal 0.000000e+00 -1.000000e+00 0.000000e+00
    outer loop
      vertex   -9.314473e+01 -8.691324e+01 -2.000000e+00
      vertex   -5.814473e+01 -8.691324e+01 -2.000000e+00
      vertex   -9.314473e+01 -8.691324e+01 0.000000e+00
    endloop
  endfacet
  facet normal 0.000000e+00 -1.000000e+00 0.000000e+00
    outer loop
      vertex   -9.314473e+01 -8.691324e+01 0.000000e+00
      vertex   -5.814473e+01 -8.691324e+01 -2.000000e+00
      vertex   -5.814473e+01 -8.691324e+01 0.000000e+00
    endloop
  endfacet
  facet normal 0.000000e+00 1.000000e+00 -0.000000e+00
    outer loop
      vertex   -5.814473e+01 -1.109132e+02 -2.000000e+00
      vertex   -9.314473e+01 -1.109132e+02 -2.000000e+00
      vertex   -5.814473e+01 -1.109132e+02 0.000000e+00
    endloop
  endfacet
  facet normal 0.000000e+00 1.000000e+00 0.000000e+00
    outer loop
      vertex   -5.814473e+01 -1.109132e+02 0.000000e+00
      vertex   -9.314473e+01 -1.109132e+02 -2.000000e+00
      vertex   -9.314473e+01 -1.109132e+02 0.000000e+00
    endloop
  endfacet
  facet normal 1.000000e+00 0.000000e+00 0.000000e+00
    outer loop
      vertex   -9.314473e+01 -1.109132e+02 -2.000000e+00
      vertex   -9.314473e+01 -8.691324e+01 -2.000000e+00
      vertex   -9.314473e+01 -1.109132e+02 0.000000e+00
    endloop
  endfacet
  facet normal 1.000000e+00 -0.000000e+00 0.000000e+00
    outer loop
      vertex   -9.314473e+01 -1.109132e+02 0.000000e+00
      vertex   -9.314473e+01 -8.691324e+01 -2.000000e+00
      vertex   -9.314473e+01 -8.691324e+01 0.000000e+00
    endloop
  endfacet
  facet normal 1.000000e+00 0.000000e+00 8.881784e-16
    outer loop
      vertex   -3.964473e+01 -7.186824e+01 0.000000e+00
      vertex   -3.964473e+01 -1.249582e+02 0.000000e+00
      vertex   -3.964473e+01 -7.186824e+01 -8.000000e+00
    endloop
  endfacet
  facet normal 1.000000e+00 0.000000e+00 8.881784e-16
    outer loop
      vertex   -3.964473e+01 -7.186824e+01 -8.000000e+00
      vertex   -3.964473e+01 -1.249582e+02 0.000000e+00
      vertex   -3.964473e+01 -1.249582e+02 -8.000000e+00
    endloop
  endfacet
  facet normal -0.000000e+00 1.000000e+00 0.000000e+00
    outer loop
      vertex   -1.116447e+02 -7.186824e+01 0.000000e+00
      vertex   -3.964473e+01 -7.186824e+01 0.000000e+00
      vertex   -1.116447e+02 -7.186824e+01 -8.000000e+00
    endloop
  endfacet
  facet normal 0.000000e+00 1.000000e+00 0.000000e+00
    outer loop
      vertex   -1.116447e+02 -7.186824e+01 -8.000000e+00
      vertex   -3.964473e+01 -7.186824e+01 0.000000e+00
      vertex   -3.964473e+01 -7.186824e+01 -8.000000e+00
    endloop
  endfacet
  facet normal -1.000000e+00 0.000000e+00 0.000000e+00
    outer loop
      vertex   -1.116447e+02 -1.249582e+02 0.000000e+00
      vertex   -1.116447e+02 -7.186824e+01 0.000000e+00
      vertex   -1.116447e+02 -1.249582e+02 -8.000000e+00
    endloop
  endfacet
  facet normal -1.000000e+00 0.000000e+00 0.000000e+00
    outer loop
      vertex   -1.116447e+02 -1.249582e+02 -8.000000e+00
      vertex   -1.116447e+02 -7.186824e+01 0.000000e+00
      vertex   -1.116447e+02 -7.186824e+01 -8.000000e+00
    endloop
  endfacet
  facet normal -0.000000e+00 -1.000000e+00 -0.000000e+00
    outer loop
      vertex   -3.964473e+01 -1.249582e+02 0.000000e+00
      vertex   -1.116447e+02 -1.249582e+02 0.000000e+00
      vertex   -3.964473e+01 -1.249582e+02 -8.000000e+00
    endloop
  endfacet
  facet normal 0.000000e+00 -1.000000e+00 0.000000e+00
    outer loop
      vertex   -3.964473e+01 -1.249582e+02 -8.000000e+00
      vertex   -1.116447e+02 -1.249582e+02 0.000000e+00
      vertex   -1.116447e+02 -1.249582e+02 -8.000000e+00
    endloop
  endfacet
  facet normal 0.000000e+00 0.000000e+00 1.000000e+00
    outer loop
      vertex   -5.814473e+01 -8.691324e+01 0.000000e+00
      vertex   -5.814473e+01 -1.109132e+02 0.000000e+00
      vertex   -3.964473e+01 -1.249582e+02 0.000000e+00
    endloop
  endfacet
  facet normal 0.000000e+00 0.000000e+00 1.000000e+00
    outer loop
      vertex   -3.964473e+01 -1.249582e+02 0.000000e+00
      vertex   -5.814473e+01 -1.109132e+02 0.000000e+00
      vertex   -9.314473e+01 -1.109132e+02 0.000000e+00
    endloop
  endfacet
  facet normal 0.000000e+00 0.000000e+00 1.000000e+00
    outer loop
      vertex   -3.964473e+01 -1.249582e+02 0.000000e+00
      vertex   -9.314473e+01 -1.109132e+02 0.000000e+00
      vertex   -1.116447e+02 -1.249582e+02 0.000000e+00
    endloop
  endfacet
  facet normal 0.000000e+00 0.000000e+00 1.000000e+00
    outer loop
      vertex   -1.116447e+02 -1.249582e+02 0.000000e+00
      vertex   -9.314473e+01 -1.109132e+02 0.000000e+00
      vertex   -9.314473e+01 -8.691324e+01 0.000000e+00
    endloop
  endfacet
  facet normal 0.000000e+00 0.000000e+00 1.000000e+00
    outer loop
      vertex   -1.116447e+02 -1.249582e+02 0.000000e+00
      vertex   -9.314473e+01 -8.691324e+01 0.000000e+00
      vertex   -1.116447e+02 -7.186824e+01 0.000000e+00
    endloop
  endfacet
  facet normal 0.000000e+00 0.000000e+00 1.000000e+00
    outer loop
      vertex   -1.116447e+02 -7.186824e+01 0.000000e+00
      vertex   -9.314473e+01 -8.691324e+01 0.000000e+00
      vertex   -5.814473e+01 -8.691324e+01 0.000000e+00
    endloop
  endfacet
  facet normal -0.000000e+00 0.000000e+00 1.000000e+00
    outer loop
      vertex   -1.116447e+02 -7.186824e+01 0.000000e+00
      vertex   -5.814473e+01 -8.691324e+01 0.000000e+00
      vertex   -3.964473e+01 -7.186824e+01 0.000000e+00
    endloop
  endfacet
  facet normal 0.000000e+00 0.000000e+00 1.000000e+00
    outer loop
      vertex   -3.964473e+01 -7.186824e+01 0.000000e+00
      vertex   -5.814473e+01 -8.691324e+01 0.000000e+00
      vertex   -3.964473e+01 -1.249582e+02 0.000000e+00
    endloop
  endfacet
endsolid
